<?xml version="1.0" standalone="no"?>
<!DOCTYPE svg PUBLIC "-//W3C//DTD SVG 20010904//EN"
 "http://www.w3.org/TR/2001/REC-SVG-20010904/DTD/svg10.dtd">
<svg version="1.0" xmlns="http://www.w3.org/2000/svg"
 width="128.000000pt" height="128.000000pt" viewBox="0 0 128.000000 128.000000"
 preserveAspectRatio="xMidYMid meet">
<metadata>
Created by potrace 1.14, written by Peter Selinger 2001-2017
</metadata>
<g transform="translate(0.000000,128.000000) scale(0.100000,-0.100000)"
fill="#000000" stroke="none">
<path d="M370 1093 c-14 -3 -33 -12 -43 -21 -18 -16 -57 -129 -57 -166 0 -47
24 -101 64 -145 56 -61 80 -103 101 -176 9 -33 27 -88 41 -123 l25 -62 -21
-46 c-24 -55 -27 -156 -8 -276 11 -72 14 -78 36 -78 22 0 24 4 19 33 -30 211
-31 221 -8 281 31 82 29 101 -20 231 -10 28 -25 76 -34 107 -11 41 -28 71 -64
110 -57 63 -81 106 -80 145 0 26 1 26 12 9 7 -10 23 -28 35 -40 13 -12 35 -41
50 -66 63 -111 95 -161 99 -156 3 2 -21 49 -53 103 -55 94 -69 117 -114 183
-19 28 -19 32 -5 60 18 34 30 40 20 10 -4 -14 -2 -20 8 -20 8 0 39 -18 68 -40
30 -22 57 -40 61 -40 17 0 6 20 -24 45 -32 26 -31 26 23 -4 31 -17 64 -31 73
-31 20 0 21 29 1 36 -33 13 -12 23 48 22 121 -1 276 -77 277 -135 0 -13 5 -23
10 -23 14 0 12 -35 -4 -75 -8 -19 -11 -35 -5 -35 5 0 9 -7 9 -16 0 -9 16 -34
35 -56 24 -28 37 -57 45 -97 29 -144 61 -211 101 -211 20 0 26 24 9 35 -16 10
-11 25 8 25 16 0 21 -14 32 -86 8 -53 21 -95 33 -110 16 -21 85 -64 102 -64 3
0 5 64 5 141 l0 141 -42 51 c-24 29 -50 61 -60 72 -9 11 -44 53 -78 94 -84
102 -114 148 -129 201 -26 90 -58 115 -251 193 -47 19 -105 38 -130 41 -25 4
-63 13 -85 21 -39 14 -86 17 -135 8z m290 -97 c0 -3 -4 -8 -10 -11 -5 -3 -10
-1 -10 4 0 6 5 11 10 11 6 0 10 -2 10 -4z m418 -561 c-3 -17 -6 -14 -21 14
-10 20 -14 43 -11 54 6 18 8 16 21 -13 7 -19 12 -43 11 -55z"/>
<path d="M651 923 c-96 -50 -106 -182 -20 -246 38 -28 106 -32 148 -10 96 50
106 182 20 246 -38 28 -106 32 -148 10z m119 -33 c0 -5 -7 -10 -15 -10 -8 0
-15 5 -15 10 0 6 7 10 15 10 8 0 15 -4 15 -10z m53 -42 c10 -14 17 -34 15 -44
-3 -16 -6 -15 -31 9 -27 28 -38 72 -15 65 6 -2 20 -16 31 -30z"/>
<path d="M790 604 c-14 -8 -37 -19 -52 -24 -23 -8 -28 -15 -28 -42 1 -44 21
-68 63 -75 28 -4 40 0 66 23 29 25 32 33 29 79 -3 45 -5 50 -28 52 -14 1 -36
-5 -50 -13z"/>
<path d="M932 534 c3 -44 12 -95 21 -114 8 -19 23 -55 33 -79 22 -54 50 -81
81 -81 32 0 29 10 -15 57 -24 25 -43 57 -50 84 -6 24 -19 80 -30 123 -26 110
-46 114 -40 10z"/>
<path d="M550 540 c0 -6 6 -21 14 -33 25 -41 28 -114 6 -160 -23 -46 -24 -57
-10 -57 6 0 20 21 31 47 23 54 19 137 -9 186 -16 27 -32 36 -32 17z"/>
<path d="M870 425 c0 -13 -13 -40 -30 -58 -33 -38 -36 -47 -17 -47 17 0 53 39
60 65 3 11 8 30 12 43 5 16 2 22 -9 22 -10 0 -16 -9 -16 -25z"/>
<path d="M622 304 c-34 -24 -26 -34 26 -35 41 0 44 -2 22 -10 -19 -7 -29 -23
-42 -64 -27 -83 1 -135 72 -135 48 0 70 27 70 86 0 36 -19 75 -50 104 -3 3 -5
11 -6 18 -2 26 -5 29 -29 40 -33 15 -36 15 -63 -4z"/>
<path d="M810 245 c-7 -8 -17 -54 -22 -102 -7 -58 -17 -97 -30 -115 -19 -28
-19 -28 2 -28 12 0 25 10 32 25 6 14 14 25 17 25 3 0 6 36 6 79 0 61 4 83 18
98 9 11 17 23 17 26 0 13 -27 7 -40 -8z"/>
<path d="M875 245 c-41 -22 -45 -31 -45 -100 0 -44 6 -71 23 -100 l23 -40 76
-3 c76 -3 76 -3 101 30 35 48 49 90 45 139 -3 40 -7 46 -41 62 -53 27 -144 32
-182 12z"/>
<path d="M530 175 c0 -14 5 -25 10 -25 6 0 10 11 10 25 0 14 -4 25 -10 25 -5
0 -10 -11 -10 -25z"/>
<path d="M1150 151 c0 -22 7 -31 28 -40 16 -7 35 -21 43 -33 50 -73 67 -77 49
-10 -6 25 -23 50 -43 66 -17 15 -37 31 -44 36 -21 17 -33 11 -33 -19z"/>
<path d="M1110 114 c0 -8 11 -30 25 -48 14 -18 25 -38 25 -44 0 -12 38 -27 47
-18 11 11 -8 53 -40 89 -37 39 -57 47 -57 21z"/>
</g>
</svg>
